<svg width="40" height="40" viewBox="0 0 40 40" fill="none" xmlns="http://www.w3.org/2000/svg">
<rect width="40" height="40" rx="8" fill="#F9FAFB"/>
<path d="M14.1667 27.5C13.7083 27.5 13.3161 27.3369 12.99 27.0108C12.6639 26.6847 12.5006 26.2922 12.5 25.8333V14.1667C12.5 13.7083 12.6633 13.3161 12.99 12.99C13.3167 12.6639 13.7089 12.5006 14.1667 12.5H25.8333C26.2917 12.5 26.6842 12.6633 27.0108 12.99C27.3375 13.3167 27.5006 13.7089 27.5 14.1667V25.8333C27.5 26.2917 27.3369 26.6842 27.0108 27.0108C26.6847 27.3375 26.2922 27.5006 25.8333 27.5H14.1667ZM14.1667 25.8333H25.8333V14.1667H14.1667V25.8333ZM15.8333 24.1667H24.1667C24.3333 24.1667 24.4583 24.0903 24.5417 23.9375C24.625 23.7847 24.6111 23.6389 24.5 23.5L22.2083 20.4375C22.125 20.3264 22.0139 20.2708 21.875 20.2708C21.7361 20.2708 21.625 20.3264 21.5417 20.4375L19.375 23.3333L17.8333 21.2708C17.75 21.1597 17.6389 21.1042 17.5 21.1042C17.3611 21.1042 17.25 21.1597 17.1667 21.2708L15.5 23.5C15.3889 23.6389 15.375 23.7847 15.4583 23.9375C15.5417 24.0903 15.6667 24.1667 15.8333 24.1667Z" fill="#000D20"/>
</svg>
