<svg width="40" height="40" viewBox="0 0 40 40" fill="none" xmlns="http://www.w3.org/2000/svg">
<rect width="40" height="40" rx="8" fill="#F9FAFB"/>
<path d="M16.25 23.75C15.2125 23.75 14.3283 23.3842 13.5973 22.6528C12.8663 21.9212 12.5005 21.037 12.5 20C12.4995 18.963 12.8653 18.0788 13.5973 17.3473C14.3293 16.6158 15.2135 16.25 16.25 16.25H18.5C18.7125 16.25 18.8908 16.322 19.0348 16.466C19.1788 16.61 19.2505 16.788 19.25 17C19.2495 17.212 19.1775 17.3903 19.034 17.5348C18.8905 17.6793 18.7125 17.751 18.5 17.75H16.25C15.625 17.75 15.0938 17.9688 14.6563 18.4062C14.2188 18.8438 14 19.375 14 20C14 20.625 14.2188 21.1562 14.6563 21.5938C15.0938 22.0312 15.625 22.25 16.25 22.25H18.5C18.7125 22.25 18.8908 22.322 19.0348 22.466C19.1788 22.61 19.2505 22.788 19.25 23C19.2495 23.212 19.1775 23.3902 19.034 23.5347C18.8905 23.6792 18.7125 23.751 18.5 23.75H16.25ZM17.75 20.75C17.5375 20.75 17.3595 20.678 17.216 20.534C17.0725 20.39 17.0005 20.212 17 20C16.9995 19.788 17.0715 19.61 17.216 19.466C17.3605 19.322 17.5385 19.25 17.75 19.25H22.25C22.4625 19.25 22.6408 19.322 22.7848 19.466C22.9288 19.61 23.0005 19.788 23 20C22.9995 20.212 22.9275 20.3903 22.784 20.5347C22.6405 20.6793 22.4625 20.751 22.25 20.75H17.75ZM21.5 23.75C21.2875 23.75 21.1095 23.678 20.966 23.534C20.8225 23.39 20.7505 23.212 20.75 23C20.7495 22.788 20.8215 22.61 20.966 22.466C21.1105 22.322 21.2885 22.25 21.5 22.25H23.75C24.375 22.25 24.9062 22.0312 25.3438 21.5938C25.7812 21.1562 26 20.625 26 20C26 19.375 25.7812 18.8438 25.3438 18.4062C24.9062 17.9688 24.375 17.75 23.75 17.75H21.5C21.2875 17.75 21.1095 17.678 20.966 17.534C20.8225 17.39 20.7505 17.212 20.75 17C20.7495 16.788 20.8215 16.61 20.966 16.466C21.1105 16.322 21.2885 16.25 21.5 16.25H23.75C24.7875 16.25 25.672 16.6158 26.4035 17.3473C27.135 18.0788 27.5005 18.963 27.5 20C27.4995 21.037 27.1338 21.9215 26.4028 22.6535C25.6718 23.3855 24.7875 23.751 23.75 23.75H21.5Z" fill="#000D20"/>
</svg>
