<svg width="40" height="40" viewBox="0 0 40 40" fill="none" xmlns="http://www.w3.org/2000/svg">
<rect width="40" height="40" rx="8" fill="#F9FAFB"/>
<path d="M20.6663 26H14.6663C14.3127 26 13.9736 25.8595 13.7235 25.6095C13.4735 25.3594 13.333 25.0203 13.333 24.6667V15.3333C13.333 14.9797 13.4735 14.6406 13.7235 14.3905C13.9736 14.1405 14.3127 14 14.6663 14H25.333C25.6866 14 26.0258 14.1405 26.2758 14.3905C26.5259 14.6406 26.6663 14.9797 26.6663 15.3333V20" stroke="#000D20" stroke-linecap="round"/>
<path d="M13.333 16.6665H26.6663M15.333 15.3399L15.3397 15.3325M17.333 15.3399L17.3397 15.3325M19.333 15.3399L19.3397 15.3325M24.661 21.4165L26.365 21.8492C26.5423 21.8945 26.667 22.0559 26.6617 22.2385C26.547 26.0772 24.333 26.6665 24.333 26.6665C24.333 26.6665 22.119 26.0772 22.0043 22.2385C22.0025 22.1496 22.0309 22.0628 22.0847 21.9921C22.1386 21.9214 22.2148 21.871 22.301 21.8492L24.005 21.4165C24.2203 21.3619 24.4457 21.3619 24.661 21.4165Z" stroke="#000D20" stroke-linecap="round" stroke-linejoin="round"/>
</svg>
