<svg width="143" height="25" viewBox="0 0 143 25" fill="none" xmlns="http://www.w3.org/2000/svg">
<path d="M28.3428 15.7832C29.4821 15.7305 30.6589 16.2746 31.6777 16.9365C32.6331 17.5572 33.4528 18.2835 33.9756 18.7217L34.0762 18.8057L34.082 18.8105V18.8184L34.3516 24.0479L34.3184 24.0566C33.501 22.392 32.3877 21.0034 31.2881 20.0615C30.7384 19.5907 30.192 19.232 29.6885 19.0059C29.1846 18.7796 28.7239 18.6865 28.3457 18.7461L28.3262 18.749V15.7842L28.3428 15.7832ZM108.996 8.19141C110.389 8.19141 111.663 8.51472 112.817 9.16211C113.985 9.80946 114.9 10.7103 115.562 11.8643C116.237 13.0183 116.575 14.3209 116.575 15.7705C116.575 17.2199 116.237 18.5283 115.562 19.6963C114.886 20.8504 113.971 21.752 112.817 22.3994C111.663 23.0468 110.389 23.3701 108.996 23.3701C107.603 23.3701 106.322 23.0467 105.154 22.3994C104 21.752 103.078 20.8504 102.389 19.6963C101.713 18.5283 101.375 17.2199 101.375 15.7705C101.375 14.3209 101.713 13.0183 102.389 11.8643C103.078 10.7103 104 9.80947 105.154 9.16211C106.322 8.51483 107.603 8.19143 108.996 8.19141ZM44.3613 8.2334C46.1346 8.2334 47.6266 8.66301 48.8369 9.52148C50.0613 10.38 50.8706 11.5689 51.2646 13.0889H47.2754C47.008 12.5963 46.6209 12.2231 46.1143 11.9697C45.6217 11.7023 45.0369 11.5693 44.3613 11.5693C43.1934 11.5694 42.2573 11.9565 41.5537 12.7305C40.8502 13.4904 40.4981 14.5105 40.498 15.791C40.498 17.156 40.864 18.2259 41.5957 19C42.3416 19.76 43.3624 20.1396 44.6572 20.1396C45.5439 20.1396 46.2903 19.9152 46.8955 19.4648C47.5147 19.0145 47.9646 18.3668 48.2461 17.5225H43.665V14.8623H51.5186V18.2188C51.2511 19.1195 50.7939 19.9574 50.1465 20.7314C49.5132 21.5055 48.7039 22.1318 47.7188 22.6104C46.7336 23.0889 45.6213 23.3281 44.3828 23.3281C42.9191 23.3281 41.6101 23.0113 40.4561 22.3779C39.3161 21.7305 38.4228 20.8363 37.7754 19.6963C37.1421 18.5563 36.8252 17.2546 36.8252 15.791C36.8252 14.3274 37.1421 13.0257 37.7754 11.8857C38.4228 10.7317 39.3161 9.83743 40.4561 9.2041C41.5959 8.55678 42.8978 8.23346 44.3613 8.2334ZM92.7461 8.2334C94.5054 8.2334 96.012 8.69806 97.2646 9.62695C98.5171 10.5558 99.3542 11.8224 99.7764 13.4268H95.8076C95.5121 12.8076 95.0898 12.3364 94.541 12.0127C94.0062 11.689 93.3937 11.5264 92.7041 11.5264C91.5924 11.5264 90.6915 11.9136 90.002 12.6875C89.3123 13.4615 88.9678 14.4963 88.9678 15.791C88.9678 17.0858 89.3124 18.1205 90.002 18.8945C90.6915 19.6686 91.5923 20.0556 92.7041 20.0557C93.3937 20.0557 94.0062 19.894 94.541 19.5703C95.0899 19.2466 95.5121 18.7745 95.8076 18.1553H99.7764C99.3541 19.7597 98.5172 21.0272 97.2646 21.9561C96.012 22.8709 94.5054 23.3281 92.7461 23.3281C91.3107 23.3281 90.0227 23.0112 88.8828 22.3779C87.757 21.7305 86.8774 20.8362 86.2441 19.6963C85.611 18.5564 85.2939 17.2546 85.2939 15.791C85.294 14.3274 85.6109 13.0257 86.2441 11.8857C86.8775 10.7317 87.7569 9.83743 88.8828 9.2041C90.0227 8.55676 91.3107 8.23346 92.7461 8.2334ZM6.6709 8.40234C8.17663 8.40234 9.35186 8.74708 10.1963 9.43652C11.0547 10.1261 11.4843 11.0621 11.4844 12.2441C11.4844 13.1167 11.2525 13.8419 10.7881 14.4189C10.3378 14.9959 9.73247 15.3969 8.97266 15.6221C9.83102 15.8051 10.5203 16.2347 11.041 16.9102C11.5618 17.5716 11.8223 18.3319 11.8223 19.1904C11.8222 20.4287 11.386 21.4137 10.5137 22.1455C9.65515 22.8633 8.45148 23.2227 6.90332 23.2227H0V8.40234H6.6709ZM19.9746 8.40234C21.1428 8.40234 22.1358 8.6065 22.9521 9.01465C23.7822 9.42275 24.4015 9.98554 24.8096 10.7031C25.2177 11.4067 25.4218 12.195 25.4219 13.0674C25.4219 14.0526 25.1401 14.933 24.5771 15.707C24.0283 16.481 23.2115 17.0298 22.1279 17.3535L25.5488 23.2227H21.4736L18.3916 17.6279H17.5264V23.2227H13.916V8.40234H19.9746ZM57.1279 14.208H62.7441V8.40234H66.3535V23.2227H62.7441V17.1211H57.1279V23.2227H53.5186V8.40234H57.1279V14.208ZM79.6211 11.2949H75.6943V23.2227H72.084V11.2949H68.1572V8.40234H79.6211V11.2949ZM124.136 8.40234C125.698 8.40234 127.063 8.71179 128.231 9.33105C129.4 9.95032 130.3 10.8233 130.934 11.9492C131.581 13.061 131.904 14.3489 131.904 15.8125C131.904 17.2621 131.581 18.5499 130.934 19.6758C130.3 20.8017 129.392 21.6737 128.21 22.293C127.042 22.9122 125.684 23.2227 124.136 23.2227H118.584V8.40234H124.136ZM143 11.2949H137.532V14.292H142.366V17.0791H137.532V20.3301H143V23.2227H133.922V8.40234H143V11.2949ZM3.61035 20.3086H6.27051C6.87526 20.3085 7.33948 20.1754 7.66309 19.9082C8.00087 19.6267 8.16992 19.2248 8.16992 18.7041C8.16983 18.1837 7.99409 17.7759 7.64258 17.4805C7.3048 17.1849 6.83273 17.0371 6.22754 17.0371H3.61035V20.3086ZM122.193 20.0977H123.903C125.269 20.0977 126.332 19.7244 127.092 18.9785C127.851 18.2326 128.231 17.1773 128.231 15.8125C128.231 14.4473 127.852 13.384 127.092 12.624C126.332 11.864 125.269 11.4844 123.903 11.4844H122.193V20.0977ZM108.996 11.4629C107.8 11.4629 106.843 11.8501 106.125 12.624C105.421 13.3981 105.069 14.4475 105.069 15.7705C105.069 17.0792 105.421 18.128 106.125 18.916C106.843 19.69 107.8 20.0771 108.996 20.0771C110.178 20.0771 111.121 19.6827 111.825 18.8945C112.543 18.1065 112.901 17.0651 112.901 15.7705C112.901 14.4616 112.543 13.4196 111.825 12.6455C111.121 11.8574 110.178 11.4629 108.996 11.4629ZM28.6436 10.542C29.567 10.542 30.588 10.9415 31.4873 11.4395C32.3869 11.9376 33.1675 12.5358 33.6113 12.9346L33.6172 12.9395V16.2842L33.5859 16.2471C31.7266 14.0159 29.5125 13.1795 28.6406 13.04L28.626 13.0371V10.542H28.6436ZM17.5264 15.0732H19.7637C20.425 15.0732 20.9175 14.9114 21.2412 14.5879C21.579 14.2642 21.748 13.8068 21.748 13.2158C21.748 12.6529 21.579 12.2094 21.2412 11.8857C20.9175 11.5622 20.425 11.4004 19.7637 11.4004H17.5264V15.0732ZM3.61035 14.3975H5.97461C6.56559 14.3974 7.01559 14.2708 7.3252 14.0176C7.6489 13.7502 7.81152 13.3631 7.81152 12.8564C7.81147 12.3499 7.64884 11.9627 7.3252 11.6953C7.0156 11.4281 6.56542 11.2949 5.97461 11.2949H3.61035V14.3975ZM33.2568 10.6074H32.958L32.9531 10.5977C32.5999 9.93623 31.3168 8.50977 29.0166 8.11426L29.002 8.11133V7.3584H33.2568V10.6074ZM31.0684 0.00390625C31.7224 0.300733 33.2434 1.37171 34.1104 3.28613L34.1221 3.31055H33.4365V3.78711L44.2764 2.28516V6.06934L33.4365 4.58301V5.16797H34.4131V6.20898H27.9658V5.16797H29.0312V3.31055H28.0898L28.1025 3.28516C28.4688 2.55273 29.5712 0.872159 31.0527 0.00488281L31.0605 0L31.0684 0.00390625ZM29.7852 5.21582H30.8662V3.35352H29.7852V5.21582ZM31.5566 5.21582H32.6377V3.35352H31.5566V5.21582Z" fill="#F9FAFB"/>
</svg>
