<svg width="22" height="24" viewBox="0 0 22 24" fill="none" xmlns="http://www.w3.org/2000/svg">
<path d="M10.8333 0C16.8166 0 21.6667 4.85008 21.6667 10.8333C21.6667 16.8166 16.8166 21.6667 10.8333 21.6667C4.85008 21.6667 0 16.8166 0 10.8333C0 4.85008 4.85008 0 10.8333 0ZM10.8333 4.33333C10.546 4.33333 10.2705 4.44747 10.0673 4.65063C9.86414 4.8538 9.75 5.12935 9.75 5.41667V10.8333C9.75006 11.1206 9.86424 11.3961 10.0674 11.5992L13.3174 14.8492C13.5217 15.0466 13.7954 15.1558 14.0794 15.1533C14.3635 15.1508 14.6352 15.0369 14.8361 14.8361C15.0369 14.6352 15.1508 14.3635 15.1533 14.0794C15.1558 13.7954 15.0466 13.5217 14.8492 13.3174L11.9167 10.3848V5.41667C11.9167 5.12935 11.8025 4.8538 11.5994 4.65063C11.3962 4.44747 11.1207 4.33333 10.8333 4.33333Z" fill="#0044FF"/>
</svg>
