<svg width="167" height="6" viewBox="0 0 167 6" fill="none" xmlns="http://www.w3.org/2000/svg">
<rect x="2.82812" width="4" height="4" transform="rotate(45 2.82812 0)" fill="#F9FAFB"/>
<rect x="10.4854" width="4" height="4" transform="rotate(45 10.4854 0)" fill="#F9FAFB"/>
<rect x="18.1426" width="4" height="4" transform="rotate(45 18.1426 0)" fill="#F9FAFB"/>
<rect x="25.7988" width="4" height="4" transform="rotate(45 25.7988 0)" fill="#F9FAFB"/>
<rect x="33.4561" width="4" height="4" transform="rotate(45 33.4561 0)" fill="#F9FAFB"/>
<rect x="41.1123" width="4" height="4" transform="rotate(45 41.1123 0)" fill="#F9FAFB"/>
<rect x="48.7695" width="4" height="4" transform="rotate(45 48.7695 0)" fill="#F9FAFB"/>
<rect x="56.4268" width="4" height="4" transform="rotate(45 56.4268 0)" fill="#F9FAFB"/>
<rect x="64.083" width="4" height="4" transform="rotate(45 64.083 0)" fill="#F9FAFB"/>
<rect x="71.7402" width="4" height="4" transform="rotate(45 71.7402 0)" fill="#F9FAFB"/>
<rect x="79.3965" width="4" height="4" transform="rotate(45 79.3965 0)" fill="#F9FAFB"/>
<rect x="87.0537" width="4" height="4" transform="rotate(45 87.0537 0)" fill="#F9FAFB"/>
<rect x="94.7109" y="0.707107" width="3" height="3" transform="rotate(45 94.7109 0.707107)" stroke="#F9FAFB"/>
<rect x="102.367" y="0.707107" width="3" height="3" transform="rotate(45 102.367 0.707107)" stroke="#F9FAFB"/>
<rect x="110.024" y="0.707107" width="3" height="3" transform="rotate(45 110.024 0.707107)" stroke="#F9FAFB"/>
<rect x="117.682" y="0.707107" width="3" height="3" transform="rotate(45 117.682 0.707107)" stroke="#F9FAFB"/>
<rect x="125.338" y="0.707107" width="3" height="3" transform="rotate(45 125.338 0.707107)" stroke="#F9FAFB"/>
<rect x="132.995" y="0.707107" width="3" height="3" transform="rotate(45 132.995 0.707107)" stroke="#F9FAFB"/>
<rect x="140.651" y="0.707107" width="3" height="3" transform="rotate(45 140.651 0.707107)" stroke="#F9FAFB"/>
<rect x="148.309" y="0.707107" width="3" height="3" transform="rotate(45 148.309 0.707107)" stroke="#F9FAFB"/>
<rect x="155.966" y="0.707107" width="3" height="3" transform="rotate(45 155.966 0.707107)" stroke="#F9FAFB"/>
<rect x="163.622" y="0.707107" width="3" height="3" transform="rotate(45 163.622 0.707107)" stroke="#F9FAFB"/>
</svg>
