<svg width="414" height="270" viewBox="0 0 414 270" fill="none" xmlns="http://www.w3.org/2000/svg">
<g clip-path="url(#clip0_542_9)">
<rect x="30" y="34" width="355" height="64" rx="16" fill="#000D20"/>
<g filter="url(#filter0_f_542_9)">
<ellipse cx="207.5" cy="104.5" rx="137.5" ry="7.5" fill="#FF8D28"/>
</g>
<rect x="47" y="48" width="37" height="37" rx="18.5" fill="url(#paint0_linear_542_9)"/>
<g clip-path="url(#clip1_542_9)">
<path d="M65.2691 66.2438L62.8458 65.9776V63.5542L65.2691 63.8205V66.2438ZM65.7307 69.1795L68.1542 69.4458V67.0224L65.7307 66.7561L65.7307 69.1795ZM62.3841 68.8119V66.3885L59.73 66.0969V68.5203L62.3841 68.8119ZM68.6158 63.7265L71.2699 64.0181V61.364L68.6158 61.0724V63.7265ZM62.3841 63.5035L59.73 63.2119V65.6353L62.3841 65.9269V63.5035ZM68.6158 69.9581V72.6123L71.2699 72.9039V70.2497L68.6158 69.9581ZM62.3841 63.042V60.3877L59.73 60.0962V62.7503L62.3841 63.042ZM62.3841 69.2735L59.73 68.9819V71.6361L62.3841 71.9277V69.2735ZM71.2699 67.3647L68.6158 67.0731V69.4965L71.2699 69.7881V67.3647ZM68.6158 64.1881V66.6115L71.2699 66.9031V64.4797L68.6158 64.1881Z" fill="white"/>
</g>
<path d="M95.799 61V53.7273H96.8963V60.0554H100.192V61H95.799ZM103.309 61.1101C102.772 61.1101 102.309 60.9953 101.921 60.7656C101.535 60.5336 101.236 60.2081 101.026 59.7891C100.817 59.3677 100.713 58.8741 100.713 58.3082C100.713 57.7495 100.817 57.2571 101.026 56.831C101.236 56.4048 101.53 56.0722 101.906 55.8331C102.285 55.594 102.728 55.4744 103.235 55.4744C103.542 55.4744 103.841 55.5253 104.129 55.6271C104.418 55.7289 104.678 55.8887 104.907 56.1065C105.137 56.3243 105.318 56.6072 105.45 56.9553C105.583 57.3009 105.649 57.7211 105.649 58.2159V58.5923H101.313V57.7969H104.609C104.609 57.5175 104.552 57.2701 104.438 57.0547C104.325 56.8369 104.165 56.6652 103.959 56.5398C103.755 56.4143 103.516 56.3516 103.242 56.3516C102.943 56.3516 102.683 56.425 102.46 56.5717C102.24 56.7161 102.07 56.9055 101.949 57.1399C101.831 57.3719 101.772 57.6241 101.772 57.8963V58.5178C101.772 58.8823 101.835 59.1925 101.963 59.4482C102.093 59.7038 102.275 59.8991 102.507 60.0341C102.739 60.1667 103.01 60.233 103.32 60.233C103.521 60.233 103.705 60.2045 103.87 60.1477C104.036 60.0885 104.179 60.0009 104.3 59.8849C104.421 59.7689 104.513 59.6257 104.577 59.4553L105.582 59.6364C105.501 59.9323 105.357 60.1915 105.149 60.4141C104.943 60.6342 104.683 60.8059 104.371 60.929C104.061 61.0497 103.707 61.1101 103.309 61.1101ZM108.714 63.1591C108.281 63.1591 107.908 63.1023 107.596 62.9886C107.286 62.875 107.032 62.7247 106.836 62.5376C106.639 62.3506 106.493 62.1458 106.395 61.9233L107.308 61.5469C107.372 61.651 107.457 61.7611 107.564 61.8771C107.673 61.9955 107.819 62.0961 108.004 62.179C108.191 62.2618 108.431 62.3033 108.725 62.3033C109.127 62.3033 109.46 62.205 109.723 62.0085C109.986 61.8144 110.117 61.5043 110.117 61.0781V60.0057H110.05C109.986 60.1217 109.893 60.2507 109.773 60.3928C109.654 60.5348 109.491 60.6579 109.283 60.7621C109.074 60.8662 108.803 60.9183 108.469 60.9183C108.038 60.9183 107.65 60.8177 107.305 60.6165C106.961 60.4129 106.689 60.1134 106.488 59.718C106.289 59.3203 106.19 58.8314 106.19 58.2514C106.19 57.6714 106.288 57.1742 106.484 56.7599C106.683 56.3456 106.955 56.0284 107.301 55.8082C107.647 55.5857 108.038 55.4744 108.476 55.4744C108.815 55.4744 109.088 55.5312 109.297 55.6449C109.505 55.7562 109.667 55.8864 109.783 56.0355C109.902 56.1847 109.993 56.3161 110.057 56.4297H110.135V55.5455H111.175V61.1207C111.175 61.5895 111.066 61.9742 110.849 62.2749C110.631 62.5755 110.336 62.7981 109.964 62.9425C109.595 63.0869 109.178 63.1591 108.714 63.1591ZM108.704 60.0376C109.009 60.0376 109.267 59.9666 109.478 59.8246C109.691 59.6802 109.852 59.4742 109.961 59.2067C110.072 58.9368 110.128 58.6136 110.128 58.2372C110.128 57.8703 110.073 57.5471 109.964 57.2678C109.855 56.9884 109.696 56.7706 109.485 56.6143C109.274 56.4557 109.014 56.3764 108.704 56.3764C108.384 56.3764 108.118 56.4593 107.905 56.625C107.692 56.7884 107.531 57.0109 107.422 57.2926C107.315 57.5743 107.262 57.8892 107.262 58.2372C107.262 58.5947 107.316 58.9084 107.425 59.1783C107.534 59.4482 107.695 59.6589 107.908 59.8104C108.124 59.9619 108.389 60.0376 108.704 60.0376ZM113.787 61.1207C113.441 61.1207 113.129 61.0568 112.849 60.929C112.57 60.7988 112.348 60.6106 112.185 60.3643C112.024 60.1181 111.944 59.8163 111.944 59.4588C111.944 59.151 112.003 58.8977 112.121 58.6989C112.24 58.5 112.399 58.3426 112.601 58.2266C112.802 58.1106 113.027 58.023 113.275 57.9638C113.524 57.9046 113.777 57.8596 114.035 57.8288C114.362 57.791 114.627 57.7602 114.831 57.7365C115.034 57.7105 115.182 57.669 115.275 57.6122C115.367 57.5554 115.413 57.4631 115.413 57.3352V57.3104C115.413 57.0002 115.326 56.7599 115.15 56.5895C114.977 56.419 114.719 56.3338 114.376 56.3338C114.019 56.3338 113.737 56.4131 113.531 56.5717C113.327 56.728 113.187 56.902 113.108 57.0938L112.111 56.8665C112.229 56.535 112.402 56.2675 112.629 56.0639C112.859 55.858 113.123 55.7088 113.421 55.6165C113.719 55.5218 114.033 55.4744 114.362 55.4744C114.58 55.4744 114.811 55.5005 115.054 55.5526C115.301 55.6023 115.53 55.6946 115.743 55.8295C115.959 55.9645 116.135 56.1574 116.272 56.4084C116.41 56.657 116.478 56.9801 116.478 57.3778V61H115.442V60.2543H115.399C115.33 60.3916 115.227 60.5265 115.09 60.6591C114.953 60.7917 114.776 60.9018 114.561 60.9893C114.345 61.0769 114.087 61.1207 113.787 61.1207ZM114.018 60.2685C114.311 60.2685 114.562 60.2105 114.77 60.0945C114.981 59.9785 115.141 59.8269 115.25 59.6399C115.361 59.4505 115.417 59.2481 115.417 59.0327V58.3295C115.379 58.3674 115.305 58.4029 115.196 58.4361C115.09 58.4669 114.968 58.4941 114.831 58.5178C114.693 58.5391 114.56 58.5592 114.429 58.5781C114.299 58.5947 114.19 58.6089 114.103 58.6207C113.897 58.6468 113.709 58.6906 113.538 58.7521C113.37 58.8137 113.235 58.9025 113.133 59.0185C113.034 59.1321 112.984 59.2836 112.984 59.473C112.984 59.7358 113.081 59.9347 113.275 60.0696C113.469 60.2022 113.717 60.2685 114.018 60.2685ZM119.79 61.1101C119.262 61.1101 118.808 60.9905 118.427 60.7514C118.048 60.5099 117.757 60.1773 117.553 59.7536C117.349 59.3298 117.248 58.8445 117.248 58.2976C117.248 57.7436 117.352 57.2547 117.56 56.831C117.768 56.4048 118.062 56.0722 118.441 55.8331C118.82 55.594 119.266 55.4744 119.78 55.4744C120.194 55.4744 120.563 55.5514 120.888 55.7053C121.212 55.8568 121.474 56.0698 121.672 56.3445C121.874 56.6191 121.993 56.9399 122.031 57.3068H120.998C120.941 57.0511 120.811 56.831 120.607 56.6463C120.406 56.4616 120.136 56.3693 119.797 56.3693C119.501 56.3693 119.242 56.4474 119.02 56.6037C118.8 56.7576 118.628 56.9777 118.505 57.2642C118.382 57.5483 118.32 57.8845 118.32 58.2727C118.32 58.6705 118.38 59.0137 118.501 59.3026C118.622 59.5914 118.792 59.8151 119.013 59.9737C119.235 60.1323 119.497 60.2116 119.797 60.2116C119.999 60.2116 120.181 60.175 120.344 60.1016C120.51 60.0258 120.648 59.9181 120.76 59.7784C120.873 59.6387 120.953 59.4706 120.998 59.2741H122.031C121.993 59.6269 121.878 59.9418 121.687 60.2188C121.495 60.4957 121.238 60.7135 120.916 60.8722C120.596 61.0308 120.221 61.1101 119.79 61.1101ZM123.438 63.0455C123.279 63.0455 123.135 63.0324 123.004 63.0064C122.874 62.9827 122.777 62.9567 122.713 62.9283L122.969 62.0582C123.163 62.1103 123.336 62.1328 123.487 62.1257C123.639 62.1186 123.773 62.0618 123.889 61.9553C124.007 61.8487 124.111 61.6747 124.201 61.4332L124.333 61.071L122.337 55.5455H123.473L124.855 59.7784H124.911L126.293 55.5455H127.433L125.185 61.728C125.081 62.0121 124.948 62.2524 124.787 62.4489C124.626 62.6477 124.434 62.7969 124.212 62.8963C123.989 62.9957 123.731 63.0455 123.438 63.0455ZM136.403 56.0923H135.295C135.252 55.8556 135.173 55.6473 135.057 55.4673C134.941 55.2874 134.799 55.1347 134.631 55.0092C134.463 54.8838 134.274 54.7891 134.066 54.7251C133.86 54.6612 133.641 54.6293 133.409 54.6293C132.99 54.6293 132.615 54.7346 132.283 54.9453C131.954 55.156 131.694 55.465 131.502 55.8722C131.313 56.2794 131.218 56.7765 131.218 57.3636C131.218 57.9555 131.313 58.455 131.502 58.8622C131.694 59.2694 131.956 59.5772 132.287 59.7855C132.618 59.9938 132.991 60.098 133.406 60.098C133.635 60.098 133.853 60.0672 134.059 60.0057C134.267 59.9418 134.456 59.8482 134.624 59.7251C134.792 59.602 134.934 59.4517 135.05 59.2741C135.168 59.0942 135.25 58.8883 135.295 58.6562L136.403 58.6598C136.344 59.0173 136.229 59.3464 136.058 59.647C135.89 59.9453 135.674 60.2034 135.408 60.4212C135.146 60.6366 134.845 60.8035 134.506 60.9219C134.168 61.0402 133.799 61.0994 133.399 61.0994C132.769 61.0994 132.208 60.9503 131.715 60.652C131.223 60.3513 130.835 59.9216 130.55 59.3629C130.269 58.8042 130.128 58.1378 130.128 57.3636C130.128 56.5871 130.27 55.9207 130.554 55.3643C130.838 54.8056 131.226 54.3771 131.719 54.0788C132.211 53.7782 132.771 53.6278 133.399 53.6278C133.784 53.6278 134.144 53.6835 134.478 53.7947C134.814 53.9036 135.116 54.0646 135.384 54.2777C135.651 54.4884 135.872 54.7464 136.048 55.0518C136.223 55.3549 136.341 55.7017 136.403 56.0923ZM139.528 61.1101C139.017 61.1101 138.571 60.9929 138.189 60.7585C137.808 60.5241 137.512 60.1963 137.302 59.7749C137.091 59.3535 136.986 58.861 136.986 58.2976C136.986 57.7318 137.091 57.237 137.302 56.8132C137.512 56.3894 137.808 56.0604 138.189 55.826C138.571 55.5916 139.017 55.4744 139.528 55.4744C140.04 55.4744 140.486 55.5916 140.867 55.826C141.248 56.0604 141.544 56.3894 141.755 56.8132C141.965 57.237 142.071 57.7318 142.071 58.2976C142.071 58.861 141.965 59.3535 141.755 59.7749C141.544 60.1963 141.248 60.5241 140.867 60.7585C140.486 60.9929 140.04 61.1101 139.528 61.1101ZM139.532 60.2188C139.863 60.2188 140.138 60.1312 140.356 59.956C140.573 59.7808 140.734 59.5476 140.839 59.2564C140.945 58.9652 140.998 58.6444 140.998 58.294C140.998 57.946 140.945 57.6264 140.839 57.3352C140.734 57.0417 140.573 56.8061 140.356 56.6286C140.138 56.451 139.863 56.3622 139.532 56.3622C139.198 56.3622 138.921 56.451 138.701 56.6286C138.483 56.8061 138.321 57.0417 138.214 57.3352C138.11 57.6264 138.058 57.946 138.058 58.294C138.058 58.6444 138.11 58.9652 138.214 59.2564C138.321 59.5476 138.483 59.7808 138.701 59.956C138.921 60.1312 139.198 60.2188 139.532 60.2188ZM144.898 61.1065C144.458 61.1065 144.065 60.9941 143.719 60.7692C143.376 60.5419 143.106 60.2187 142.909 59.7997C142.715 59.3783 142.618 58.8729 142.618 58.2834C142.618 57.6939 142.716 57.1896 142.913 56.7706C143.112 56.3516 143.384 56.0308 143.73 55.8082C144.075 55.5857 144.467 55.4744 144.905 55.4744C145.244 55.4744 145.516 55.5312 145.722 55.6449C145.93 55.7562 146.091 55.8864 146.205 56.0355C146.321 56.1847 146.411 56.3161 146.475 56.4297H146.538V53.7273H147.6V61H146.563V60.1513H146.475C146.411 60.2673 146.318 60.3999 146.198 60.549C146.079 60.6982 145.916 60.8284 145.708 60.9396C145.499 61.0509 145.229 61.1065 144.898 61.1065ZM145.132 60.201C145.438 60.201 145.696 60.1205 145.906 59.9595C146.119 59.7962 146.28 59.5701 146.389 59.2812C146.501 58.9924 146.556 58.6562 146.556 58.2727C146.556 57.8939 146.502 57.5625 146.393 57.2784C146.284 56.9943 146.124 56.773 145.913 56.6143C145.703 56.4557 145.442 56.3764 145.132 56.3764C144.813 56.3764 144.546 56.4593 144.333 56.625C144.12 56.7907 143.959 57.0168 143.85 57.3033C143.744 57.5897 143.69 57.9129 143.69 58.2727C143.69 58.6373 143.745 58.9652 143.854 59.2564C143.963 59.5476 144.124 59.7784 144.337 59.9489C144.552 60.117 144.817 60.201 145.132 60.201ZM151.067 61.1101C150.529 61.1101 150.066 60.9953 149.678 60.7656C149.292 60.5336 148.994 60.2081 148.783 59.7891C148.575 59.3677 148.471 58.8741 148.471 58.3082C148.471 57.7495 148.575 57.2571 148.783 56.831C148.994 56.4048 149.287 56.0722 149.664 55.8331C150.043 55.594 150.485 55.4744 150.992 55.4744C151.3 55.4744 151.598 55.5253 151.887 55.6271C152.176 55.7289 152.435 55.8887 152.665 56.1065C152.894 56.3243 153.075 56.6072 153.208 56.9553C153.34 57.3009 153.407 57.7211 153.407 58.2159V58.5923H149.071V57.7969H152.366C152.366 57.5175 152.309 57.2701 152.196 57.0547C152.082 56.8369 151.922 56.6652 151.716 56.5398C151.513 56.4143 151.274 56.3516 150.999 56.3516C150.701 56.3516 150.44 56.425 150.218 56.5717C149.998 56.7161 149.827 56.9055 149.706 57.1399C149.588 57.3719 149.529 57.6241 149.529 57.8963V58.5178C149.529 58.8823 149.593 59.1925 149.721 59.4482C149.851 59.7038 150.032 59.8991 150.264 60.0341C150.496 60.1667 150.767 60.233 151.077 60.233C151.278 60.233 151.462 60.2045 151.628 60.1477C151.793 60.0885 151.937 60.0009 152.057 59.8849C152.178 59.7689 152.27 59.6257 152.334 59.4553L153.339 59.6364C153.259 59.9323 153.114 60.1915 152.906 60.4141C152.7 60.6342 152.441 60.8059 152.128 60.929C151.818 61.0497 151.464 61.1101 151.067 61.1101ZM158.019 61.1207C157.673 61.1207 157.361 61.0568 157.081 60.929C156.802 60.7988 156.581 60.6106 156.417 60.3643C156.256 60.1181 156.176 59.8163 156.176 59.4588C156.176 59.151 156.235 58.8977 156.353 58.6989C156.472 58.5 156.631 58.3426 156.833 58.2266C157.034 58.1106 157.259 58.023 157.507 57.9638C157.756 57.9046 158.009 57.8596 158.267 57.8288C158.594 57.791 158.859 57.7602 159.063 57.7365C159.266 57.7105 159.414 57.669 159.507 57.6122C159.599 57.5554 159.645 57.4631 159.645 57.3352V57.3104C159.645 57.0002 159.558 56.7599 159.382 56.5895C159.21 56.419 158.951 56.3338 158.608 56.3338C158.251 56.3338 157.969 56.4131 157.763 56.5717C157.559 56.728 157.419 56.902 157.34 57.0938L156.343 56.8665C156.461 56.535 156.634 56.2675 156.861 56.0639C157.091 55.858 157.355 55.7088 157.653 55.6165C157.951 55.5218 158.265 55.4744 158.594 55.4744C158.812 55.4744 159.043 55.5005 159.286 55.5526C159.533 55.6023 159.762 55.6946 159.975 55.8295C160.191 55.9645 160.367 56.1574 160.505 56.4084C160.642 56.657 160.71 56.9801 160.71 57.3778V61H159.674V60.2543H159.631C159.562 60.3916 159.459 60.5265 159.322 60.6591C159.185 60.7917 159.008 60.9018 158.793 60.9893C158.577 61.0769 158.319 61.1207 158.019 61.1207ZM158.25 60.2685C158.543 60.2685 158.794 60.2105 159.002 60.0945C159.213 59.9785 159.373 59.8269 159.482 59.6399C159.593 59.4505 159.649 59.2481 159.649 59.0327V58.3295C159.611 58.3674 159.537 58.4029 159.429 58.4361C159.322 58.4669 159.2 58.4941 159.063 58.5178C158.925 58.5391 158.792 58.5592 158.661 58.5781C158.531 58.5947 158.422 58.6089 158.335 58.6207C158.129 58.6468 157.941 58.6906 157.77 58.7521C157.602 58.8137 157.467 58.9025 157.365 59.0185C157.266 59.1321 157.216 59.2836 157.216 59.473C157.216 59.7358 157.313 59.9347 157.507 60.0696C157.701 60.2022 157.949 60.2685 158.25 60.2685ZM162.787 57.7614V61H161.725V55.5455H162.744V56.4332H162.811C162.937 56.1444 163.133 55.9124 163.401 55.7372C163.671 55.562 164.01 55.4744 164.42 55.4744C164.792 55.4744 165.117 55.5526 165.397 55.7088C165.676 55.8627 165.893 56.0923 166.046 56.3977C166.2 56.7031 166.277 57.0807 166.277 57.5305V61H165.215V57.6584C165.215 57.263 165.113 56.9541 164.907 56.7315C164.701 56.5066 164.418 56.3942 164.058 56.3942C163.812 56.3942 163.593 56.4474 163.401 56.554C163.211 56.6605 163.061 56.8168 162.95 57.0227C162.841 57.2263 162.787 57.4725 162.787 57.7614ZM169.343 61.1065C168.903 61.1065 168.51 60.9941 168.164 60.7692C167.821 60.5419 167.551 60.2187 167.355 59.7997C167.16 59.3783 167.063 58.8729 167.063 58.2834C167.063 57.6939 167.162 57.1896 167.358 56.7706C167.557 56.3516 167.829 56.0308 168.175 55.8082C168.521 55.5857 168.912 55.4744 169.35 55.4744C169.689 55.4744 169.961 55.5312 170.167 55.6449C170.375 55.7562 170.536 55.8864 170.65 56.0355C170.766 56.1847 170.856 56.3161 170.92 56.4297H170.984V53.7273H172.046V61H171.009V60.1513H170.92C170.856 60.2673 170.764 60.3999 170.643 60.549C170.525 60.6982 170.361 60.8284 170.153 60.9396C169.945 61.0509 169.675 61.1065 169.343 61.1065ZM169.578 60.201C169.883 60.201 170.141 60.1205 170.352 59.9595C170.565 59.7962 170.726 59.5701 170.835 59.2812C170.946 58.9924 171.002 58.6562 171.002 58.2727C171.002 57.8939 170.947 57.5625 170.838 57.2784C170.729 56.9943 170.57 56.773 170.359 56.6143C170.148 56.4557 169.888 56.3764 169.578 56.3764C169.258 56.3764 168.992 56.4593 168.779 56.625C168.565 56.7907 168.404 57.0168 168.296 57.3033C168.189 57.5897 168.136 57.9129 168.136 58.2727C168.136 58.6373 168.19 58.9652 168.299 59.2564C168.408 59.5476 168.569 59.7784 168.782 59.9489C168.998 60.117 169.263 60.201 169.578 60.201ZM176.59 53.7273V61H175.493V53.7273H176.59ZM178.765 57.7614V61H177.703V55.5455H178.722V56.4332H178.789C178.915 56.1444 179.111 55.9124 179.379 55.7372C179.649 55.562 179.989 55.4744 180.398 55.4744C180.77 55.4744 181.095 55.5526 181.375 55.7088C181.654 55.8627 181.871 56.0923 182.025 56.3977C182.178 56.7031 182.255 57.0807 182.255 57.5305V61H181.194V57.6584C181.194 57.263 181.091 56.9541 180.885 56.7315C180.679 56.5066 180.396 56.3942 180.036 56.3942C179.79 56.3942 179.571 56.4474 179.379 56.554C179.19 56.6605 179.039 56.8168 178.928 57.0227C178.819 57.2263 178.765 57.4725 178.765 57.7614ZM185.875 55.5455V56.3977H182.793V55.5455H185.875ZM183.638 61V54.9134C183.638 54.5724 183.713 54.2895 183.862 54.0646C184.011 53.8374 184.209 53.6681 184.455 53.5568C184.701 53.4432 184.969 53.3864 185.257 53.3864C185.47 53.3864 185.653 53.4041 185.804 53.4396C185.956 53.4728 186.068 53.5036 186.142 53.532L185.893 54.3913C185.843 54.3771 185.779 54.3606 185.701 54.3416C185.623 54.3203 185.528 54.3097 185.417 54.3097C185.159 54.3097 184.974 54.3736 184.863 54.5014C184.754 54.6293 184.7 54.8139 184.7 55.0554V61H183.638ZM186.571 61V55.5455H187.597V56.4119H187.654C187.753 56.1184 187.929 55.8875 188.179 55.7195C188.433 55.549 188.719 55.4638 189.039 55.4638C189.105 55.4638 189.183 55.4661 189.273 55.4709C189.366 55.4756 189.438 55.4815 189.49 55.4886V56.5043C189.447 56.4924 189.371 56.4794 189.263 56.4652C189.154 56.4486 189.045 56.4403 188.936 56.4403C188.685 56.4403 188.461 56.4936 188.265 56.6001C188.071 56.7043 187.917 56.8499 187.803 57.0369C187.689 57.2216 187.633 57.4323 187.633 57.669V61H186.571ZM191.547 61.1207C191.202 61.1207 190.889 61.0568 190.61 60.929C190.33 60.7988 190.109 60.6106 189.946 60.3643C189.785 60.1181 189.704 59.8163 189.704 59.4588C189.704 59.151 189.763 58.8977 189.882 58.6989C190 58.5 190.16 58.3426 190.361 58.2266C190.562 58.1106 190.787 58.023 191.036 57.9638C191.284 57.9046 191.538 57.8596 191.796 57.8288C192.123 57.791 192.388 57.7602 192.591 57.7365C192.795 57.7105 192.943 57.669 193.035 57.6122C193.127 57.5554 193.174 57.4631 193.174 57.3352V57.3104C193.174 57.0002 193.086 56.7599 192.911 56.5895C192.738 56.419 192.48 56.3338 192.137 56.3338C191.779 56.3338 191.498 56.4131 191.292 56.5717C191.088 56.728 190.947 56.902 190.869 57.0938L189.871 56.8665C189.989 56.535 190.162 56.2675 190.39 56.0639C190.619 55.858 190.883 55.7088 191.181 55.6165C191.48 55.5218 191.793 55.4744 192.123 55.4744C192.34 55.4744 192.571 55.5005 192.815 55.5526C193.061 55.6023 193.291 55.6946 193.504 55.8295C193.719 55.9645 193.896 56.1574 194.033 56.4084C194.17 56.657 194.239 56.9801 194.239 57.3778V61H193.202V60.2543H193.159C193.091 60.3916 192.988 60.5265 192.85 60.6591C192.713 60.7917 192.537 60.9018 192.321 60.9893C192.106 61.0769 191.848 61.1207 191.547 61.1207ZM191.778 60.2685C192.072 60.2685 192.323 60.2105 192.531 60.0945C192.742 59.9785 192.901 59.8269 193.01 59.6399C193.122 59.4505 193.177 59.2481 193.177 59.0327V58.3295C193.139 58.3674 193.066 58.4029 192.957 58.4361C192.85 58.4669 192.729 58.4941 192.591 58.5178C192.454 58.5391 192.32 58.5592 192.19 58.5781C192.06 58.5947 191.951 58.6089 191.863 58.6207C191.657 58.6468 191.469 58.6906 191.299 58.7521C191.131 58.8137 190.996 58.9025 190.894 59.0185C190.794 59.1321 190.745 59.2836 190.745 59.473C190.745 59.7358 190.842 59.9347 191.036 60.0696C191.23 60.2022 191.477 60.2685 191.778 60.2685ZM199.341 56.8771L198.378 57.0476C198.338 56.9245 198.274 56.8073 198.186 56.696C198.101 56.5848 197.985 56.4936 197.838 56.4226C197.692 56.3516 197.508 56.3161 197.288 56.3161C196.987 56.3161 196.736 56.3835 196.535 56.5185C196.334 56.651 196.233 56.8227 196.233 57.0334C196.233 57.2157 196.301 57.3625 196.436 57.4737C196.571 57.585 196.789 57.6761 197.089 57.7472L197.956 57.946C198.458 58.062 198.832 58.2408 199.078 58.4822C199.324 58.7237 199.447 59.0374 199.447 59.4233C199.447 59.75 199.352 60.0412 199.163 60.2969C198.976 60.5502 198.714 60.7491 198.378 60.8935C198.044 61.0379 197.657 61.1101 197.217 61.1101C196.606 61.1101 196.108 60.9799 195.722 60.7195C195.336 60.4567 195.099 60.0838 195.012 59.6009L196.038 59.4446C196.102 59.7121 196.233 59.9145 196.432 60.0518C196.631 60.1868 196.89 60.2543 197.21 60.2543C197.558 60.2543 197.836 60.1821 198.044 60.0376C198.253 59.8909 198.357 59.7121 198.357 59.5014C198.357 59.331 198.293 59.1877 198.165 59.0717C198.04 58.9557 197.847 58.8681 197.586 58.8089L196.663 58.6065C196.154 58.4905 195.778 58.3059 195.534 58.0526C195.292 57.7992 195.172 57.4785 195.172 57.0902C195.172 56.7682 195.262 56.4865 195.441 56.245C195.621 56.0036 195.87 55.8153 196.187 55.6804C196.504 55.5431 196.868 55.4744 197.277 55.4744C197.867 55.4744 198.331 55.6023 198.669 55.858C199.008 56.1113 199.232 56.451 199.341 56.8771ZM202.761 55.5455V56.3977H199.781V55.5455H202.761ZM200.58 54.2386H201.642V59.3984C201.642 59.6044 201.673 59.7595 201.734 59.8636C201.796 59.9654 201.875 60.0353 201.972 60.0732C202.072 60.1087 202.18 60.1264 202.296 60.1264C202.381 60.1264 202.455 60.1205 202.519 60.1087C202.583 60.0968 202.633 60.0874 202.668 60.0803L202.86 60.9574C202.799 60.9811 202.711 61.0047 202.597 61.0284C202.484 61.0545 202.342 61.0687 202.171 61.071C201.892 61.0758 201.631 61.026 201.39 60.9219C201.149 60.8177 200.953 60.6567 200.804 60.4389C200.655 60.2211 200.58 59.9477 200.58 59.6186V54.2386ZM203.535 61V55.5455H204.562V56.4119H204.618C204.718 56.1184 204.893 55.8875 205.144 55.7195C205.397 55.549 205.684 55.4638 206.003 55.4638C206.07 55.4638 206.148 55.4661 206.238 55.4709C206.33 55.4756 206.402 55.4815 206.454 55.4886V56.5043C206.412 56.4924 206.336 56.4794 206.227 56.4652C206.118 56.4486 206.009 56.4403 205.9 56.4403C205.649 56.4403 205.426 56.4936 205.229 56.6001C205.035 56.7043 204.881 56.8499 204.768 57.0369C204.654 57.2216 204.597 57.4323 204.597 57.669V61H203.535ZM210.428 58.7379V55.5455H211.494V61H210.45V60.0554H210.393C210.267 60.3466 210.066 60.5893 209.789 60.7834C209.515 60.9751 209.172 61.071 208.763 61.071C208.413 61.071 208.102 60.9941 207.833 60.8402C207.565 60.6839 207.354 60.4531 207.2 60.1477C207.049 59.8423 206.973 59.4647 206.973 59.0149V55.5455H208.035V58.8871C208.035 59.2588 208.138 59.5547 208.344 59.7749C208.55 59.995 208.817 60.1051 209.146 60.1051C209.345 60.1051 209.543 60.0554 209.739 59.956C209.938 59.8565 210.103 59.7062 210.233 59.505C210.366 59.3037 210.431 59.0481 210.428 58.7379ZM214.818 61.1101C214.29 61.1101 213.836 60.9905 213.454 60.7514C213.076 60.5099 212.784 60.1773 212.581 59.7536C212.377 59.3298 212.275 58.8445 212.275 58.2976C212.275 57.7436 212.38 57.2547 212.588 56.831C212.796 56.4048 213.09 56.0722 213.469 55.8331C213.847 55.594 214.294 55.4744 214.807 55.4744C215.222 55.4744 215.591 55.5514 215.915 55.7053C216.24 55.8568 216.501 56.0698 216.7 56.3445C216.901 56.6191 217.021 56.9399 217.059 57.3068H216.025C215.969 57.0511 215.838 56.831 215.635 56.6463C215.434 56.4616 215.164 56.3693 214.825 56.3693C214.529 56.3693 214.27 56.4474 214.047 56.6037C213.827 56.7576 213.656 56.9777 213.532 57.2642C213.409 57.5483 213.348 57.8845 213.348 58.2727C213.348 58.6705 213.408 59.0137 213.529 59.3026C213.65 59.5914 213.82 59.8151 214.04 59.9737C214.263 60.1323 214.524 60.2116 214.825 60.2116C215.026 60.2116 215.209 60.175 215.372 60.1016C215.538 60.0258 215.676 59.9181 215.787 59.7784C215.901 59.6387 215.98 59.4706 216.025 59.2741H217.059C217.021 59.6269 216.906 59.9418 216.714 60.2188C216.523 60.4957 216.266 60.7135 215.944 60.8722C215.624 61.0308 215.249 61.1101 214.818 61.1101ZM220.34 55.5455V56.3977H217.361V55.5455H220.34ZM218.16 54.2386H219.222V59.3984C219.222 59.6044 219.253 59.7595 219.314 59.8636C219.376 59.9654 219.455 60.0353 219.552 60.0732C219.651 60.1087 219.759 60.1264 219.875 60.1264C219.96 60.1264 220.035 60.1205 220.099 60.1087C220.163 60.0968 220.213 60.0874 220.248 60.0803L220.44 60.9574C220.378 60.9811 220.291 61.0047 220.177 61.0284C220.063 61.0545 219.921 61.0687 219.751 61.071C219.472 61.0758 219.211 61.026 218.97 60.9219C218.728 60.8177 218.533 60.6567 218.384 60.4389C218.235 60.2211 218.16 59.9477 218.16 59.6186V54.2386ZM224.57 58.7379V55.5455H225.636V61H224.592V60.0554H224.535C224.409 60.3466 224.208 60.5893 223.931 60.7834C223.656 60.9751 223.314 61.071 222.905 61.071C222.554 61.071 222.244 60.9941 221.974 60.8402C221.707 60.6839 221.496 60.4531 221.342 60.1477C221.191 59.8423 221.115 59.4647 221.115 59.0149V55.5455H222.177V58.8871C222.177 59.2588 222.28 59.5547 222.486 59.7749C222.692 59.995 222.959 60.1051 223.288 60.1051C223.487 60.1051 223.685 60.0554 223.881 59.956C224.08 59.8565 224.245 59.7062 224.375 59.505C224.507 59.3037 224.573 59.0481 224.57 58.7379ZM226.662 61V55.5455H227.688V56.4119H227.745C227.845 56.1184 228.02 55.8875 228.271 55.7195C228.524 55.549 228.811 55.4638 229.13 55.4638C229.197 55.4638 229.275 55.4661 229.365 55.4709C229.457 55.4756 229.529 55.4815 229.581 55.4886V56.5043C229.539 56.4924 229.463 56.4794 229.354 56.4652C229.245 56.4486 229.136 56.4403 229.027 56.4403C228.776 56.4403 228.553 56.4936 228.356 56.6001C228.162 56.7043 228.008 56.8499 227.894 57.0369C227.781 57.2216 227.724 57.4323 227.724 57.669V61H226.662ZM232.256 61.1101C231.718 61.1101 231.255 60.9953 230.867 60.7656C230.481 60.5336 230.183 60.2081 229.972 59.7891C229.764 59.3677 229.66 58.8741 229.66 58.3082C229.66 57.7495 229.764 57.2571 229.972 56.831C230.183 56.4048 230.477 56.0722 230.853 55.8331C231.232 55.594 231.674 55.4744 232.181 55.4744C232.489 55.4744 232.787 55.5253 233.076 55.6271C233.365 55.7289 233.624 55.8887 233.854 56.1065C234.083 56.3243 234.264 56.6072 234.397 56.9553C234.53 57.3009 234.596 57.7211 234.596 58.2159V58.5923H230.26V57.7969H233.555C233.555 57.5175 233.499 57.2701 233.385 57.0547C233.271 56.8369 233.111 56.6652 232.905 56.5398C232.702 56.4143 232.463 56.3516 232.188 56.3516C231.89 56.3516 231.629 56.425 231.407 56.5717C231.187 56.7161 231.016 56.9055 230.896 57.1399C230.777 57.3719 230.718 57.6241 230.718 57.8963V58.5178C230.718 58.8823 230.782 59.1925 230.91 59.4482C231.04 59.7038 231.221 59.8991 231.453 60.0341C231.685 60.1667 231.956 60.233 232.266 60.233C232.468 60.233 232.651 60.2045 232.817 60.1477C232.982 60.0885 233.126 60.0009 233.246 59.8849C233.367 59.7689 233.459 59.6257 233.523 59.4553L234.528 59.6364C234.448 59.9323 234.303 60.1915 234.095 60.4141C233.889 60.6342 233.63 60.8059 233.317 60.929C233.007 61.0497 232.653 61.1101 232.256 61.1101Z" fill="#F9FAFB"/>
<rect x="95" y="69" width="270" height="5" rx="1" fill="white" fill-opacity="0.05"/>
<rect x="95" y="78" width="224" height="5" rx="1" fill="white" fill-opacity="0.05"/>
</g>
<rect x="30.5" y="34.5" width="354" height="63" rx="15.5" stroke="#222B59" stroke-opacity="0.63"/>
<g clip-path="url(#clip2_542_9)">
<rect x="30" y="117" width="355" height="148" rx="16" fill="#000D20"/>
<g filter="url(#filter1_f_542_9)">
<ellipse cx="207.5" cy="110.5" rx="137.5" ry="7.5" fill="#0044FF"/>
</g>
<rect x="47" y="131" width="37" height="37" rx="18.5" fill="url(#paint1_linear_542_9)"/>
<path d="M63.4417 144.838C63.8672 143.593 65.5877 143.555 66.0922 144.725L66.1349 144.839L66.7091 146.518C66.8407 146.903 67.0534 147.255 67.3327 147.551C67.6121 147.847 67.9517 148.08 68.3286 148.233L68.483 148.291L70.1622 148.865C71.4074 149.29 71.4451 151.011 70.2761 151.515L70.1622 151.558L68.483 152.132C68.0977 152.263 67.7452 152.476 67.4491 152.755C67.1531 153.035 66.9204 153.374 66.7667 153.751L66.7091 153.905L66.1356 155.585C65.7101 156.83 63.9896 156.868 63.4858 155.699L63.4417 155.585L62.8682 153.906C62.7367 153.521 62.5241 153.168 62.2447 152.872C61.9654 152.576 61.6257 152.343 61.2488 152.19L61.0951 152.132L59.4158 151.558C58.1699 151.133 58.1322 149.412 59.302 148.909L59.4158 148.865L61.0951 148.291C61.4802 148.159 61.8326 147.947 62.1285 147.667C62.4245 147.388 62.657 147.048 62.8106 146.672L62.8682 146.518L63.4417 144.838ZM70.481 142.385C70.6141 142.385 70.7445 142.422 70.8575 142.492C70.9704 142.563 71.0614 142.663 71.1199 142.783L71.1541 142.866L71.4031 143.596L72.1339 143.845C72.2673 143.891 72.3842 143.975 72.4699 144.086C72.5556 144.198 72.6061 144.333 72.6151 144.474C72.6241 144.614 72.5911 144.754 72.5204 144.876C72.4497 144.998 72.3444 145.096 72.2178 145.158L72.1339 145.192L71.4038 145.441L71.1548 146.172C71.1094 146.305 71.0254 146.422 70.9135 146.508C70.8016 146.593 70.6669 146.644 70.5263 146.653C70.3857 146.662 70.2456 146.629 70.1238 146.558C70.002 146.487 69.9039 146.382 69.842 146.255L69.8079 146.172L69.5588 145.442L68.8281 145.193C68.6947 145.148 68.5777 145.064 68.4921 144.952C68.4064 144.84 68.3559 144.705 68.3469 144.565C68.3379 144.424 68.3708 144.284 68.4416 144.162C68.5123 144.04 68.6176 143.942 68.7441 143.88L68.8281 143.846L69.5581 143.597L69.8071 142.866C69.8551 142.726 69.9459 142.604 70.0667 142.517C70.1876 142.431 70.3324 142.384 70.481 142.385Z" fill="white"/>
<path d="M96.4134 144H95.2486L97.8658 136.727H99.1335L101.751 144H100.586L98.5298 138.048H98.473L96.4134 144ZM96.6087 141.152H100.387V142.075H96.6087V141.152ZM104.27 144.107C103.829 144.107 103.436 143.994 103.091 143.769C102.747 143.542 102.478 143.219 102.281 142.8C102.087 142.378 101.99 141.873 101.99 141.283C101.99 140.694 102.088 140.19 102.285 139.771C102.484 139.352 102.756 139.031 103.101 138.808C103.447 138.586 103.839 138.474 104.277 138.474C104.615 138.474 104.888 138.531 105.094 138.645C105.302 138.756 105.463 138.886 105.577 139.036C105.693 139.185 105.783 139.316 105.846 139.43H105.91V136.727H106.972V144H105.935V143.151H105.846C105.783 143.267 105.69 143.4 105.569 143.549C105.451 143.698 105.288 143.828 105.079 143.94C104.871 144.051 104.601 144.107 104.27 144.107ZM104.504 143.201C104.81 143.201 105.068 143.121 105.278 142.96C105.491 142.796 105.652 142.57 105.761 142.281C105.872 141.992 105.928 141.656 105.928 141.273C105.928 140.894 105.874 140.562 105.765 140.278C105.656 139.994 105.496 139.773 105.285 139.614C105.075 139.456 104.814 139.376 104.504 139.376C104.185 139.376 103.918 139.459 103.705 139.625C103.492 139.791 103.331 140.017 103.222 140.303C103.116 140.59 103.062 140.913 103.062 141.273C103.062 141.637 103.117 141.965 103.226 142.256C103.335 142.548 103.496 142.778 103.709 142.949C103.924 143.117 104.189 143.201 104.504 143.201ZM112.754 138.545L110.776 144H109.639L107.658 138.545H108.798L110.179 142.743H110.236L111.614 138.545H112.754ZM114.783 144.121C114.437 144.121 114.125 144.057 113.845 143.929C113.566 143.799 113.345 143.611 113.181 143.364C113.02 143.118 112.94 142.816 112.94 142.459C112.94 142.151 112.999 141.898 113.117 141.699C113.236 141.5 113.395 141.343 113.597 141.227C113.798 141.111 114.023 141.023 114.271 140.964C114.52 140.905 114.773 140.86 115.031 140.829C115.358 140.791 115.623 140.76 115.827 140.737C116.03 140.71 116.178 140.669 116.271 140.612C116.363 140.555 116.409 140.463 116.409 140.335V140.31C116.409 140 116.322 139.76 116.146 139.589C115.974 139.419 115.716 139.334 115.372 139.334C115.015 139.334 114.733 139.413 114.527 139.572C114.323 139.728 114.183 139.902 114.105 140.094L113.107 139.866C113.225 139.535 113.398 139.268 113.625 139.064C113.855 138.858 114.119 138.709 114.417 138.616C114.715 138.522 115.029 138.474 115.358 138.474C115.576 138.474 115.807 138.5 116.051 138.553C116.297 138.602 116.526 138.695 116.739 138.83C116.955 138.964 117.131 139.157 117.269 139.408C117.406 139.657 117.475 139.98 117.475 140.378V144H116.438V143.254H116.395C116.326 143.392 116.223 143.527 116.086 143.659C115.949 143.792 115.772 143.902 115.557 143.989C115.341 144.077 115.083 144.121 114.783 144.121ZM115.014 143.268C115.307 143.268 115.558 143.21 115.766 143.094C115.977 142.978 116.137 142.827 116.246 142.64C116.357 142.451 116.413 142.248 116.413 142.033V141.33C116.375 141.367 116.301 141.403 116.193 141.436C116.086 141.467 115.964 141.494 115.827 141.518C115.689 141.539 115.556 141.559 115.426 141.578C115.295 141.595 115.186 141.609 115.099 141.621C114.893 141.647 114.705 141.691 114.534 141.752C114.366 141.814 114.231 141.902 114.129 142.018C114.03 142.132 113.98 142.284 113.98 142.473C113.98 142.736 114.077 142.935 114.271 143.07C114.466 143.202 114.713 143.268 115.014 143.268ZM119.551 140.761V144H118.489V138.545H119.508V139.433H119.575C119.701 139.144 119.897 138.912 120.165 138.737C120.435 138.562 120.775 138.474 121.184 138.474C121.556 138.474 121.881 138.553 122.161 138.709C122.44 138.863 122.657 139.092 122.811 139.398C122.964 139.703 123.041 140.081 123.041 140.531V144H121.98V140.658C121.98 140.263 121.877 139.954 121.671 139.732C121.465 139.507 121.182 139.394 120.822 139.394C120.576 139.394 120.357 139.447 120.165 139.554C119.976 139.661 119.825 139.817 119.714 140.023C119.605 140.226 119.551 140.473 119.551 140.761ZM126.363 144.11C125.835 144.11 125.38 143.991 124.999 143.751C124.621 143.51 124.329 143.177 124.126 142.754C123.922 142.33 123.82 141.844 123.82 141.298C123.82 140.744 123.924 140.255 124.133 139.831C124.341 139.405 124.635 139.072 125.013 138.833C125.392 138.594 125.839 138.474 126.352 138.474C126.767 138.474 127.136 138.551 127.46 138.705C127.785 138.857 128.046 139.07 128.245 139.344C128.446 139.619 128.566 139.94 128.604 140.307H127.57C127.513 140.051 127.383 139.831 127.18 139.646C126.978 139.462 126.709 139.369 126.37 139.369C126.074 139.369 125.815 139.447 125.592 139.604C125.372 139.758 125.201 139.978 125.077 140.264C124.954 140.548 124.893 140.884 124.893 141.273C124.893 141.67 124.953 142.014 125.074 142.303C125.195 142.591 125.365 142.815 125.585 142.974C125.808 143.132 126.069 143.212 126.37 143.212C126.571 143.212 126.754 143.175 126.917 143.102C127.083 143.026 127.221 142.918 127.332 142.778C127.446 142.639 127.525 142.471 127.57 142.274H128.604C128.566 142.627 128.451 142.942 128.259 143.219C128.067 143.496 127.811 143.714 127.489 143.872C127.169 144.031 126.794 144.11 126.363 144.11ZM131.69 144.11C131.153 144.11 130.69 143.995 130.302 143.766C129.916 143.534 129.617 143.208 129.407 142.789C129.198 142.368 129.094 141.874 129.094 141.308C129.094 140.75 129.198 140.257 129.407 139.831C129.617 139.405 129.911 139.072 130.287 138.833C130.666 138.594 131.109 138.474 131.615 138.474C131.923 138.474 132.222 138.525 132.51 138.627C132.799 138.729 133.058 138.889 133.288 139.107C133.518 139.324 133.699 139.607 133.831 139.955C133.964 140.301 134.03 140.721 134.03 141.216V141.592H129.694V140.797H132.99C132.99 140.518 132.933 140.27 132.819 140.055C132.706 139.837 132.546 139.665 132.34 139.54C132.136 139.414 131.897 139.352 131.623 139.352C131.324 139.352 131.064 139.425 130.841 139.572C130.621 139.716 130.451 139.906 130.33 140.14C130.212 140.372 130.152 140.624 130.152 140.896V141.518C130.152 141.882 130.216 142.192 130.344 142.448C130.474 142.704 130.655 142.899 130.887 143.034C131.119 143.167 131.391 143.233 131.701 143.233C131.902 143.233 132.085 143.205 132.251 143.148C132.417 143.089 132.56 143.001 132.681 142.885C132.802 142.769 132.894 142.626 132.958 142.455L133.963 142.636C133.882 142.932 133.738 143.192 133.53 143.414C133.324 143.634 133.064 143.806 132.752 143.929C132.442 144.05 132.088 144.11 131.69 144.11ZM136.85 144.107C136.41 144.107 136.017 143.994 135.671 143.769C135.328 143.542 135.058 143.219 134.862 142.8C134.667 142.378 134.57 141.873 134.57 141.283C134.57 140.694 134.669 140.19 134.865 139.771C135.064 139.352 135.336 139.031 135.682 138.808C136.028 138.586 136.419 138.474 136.857 138.474C137.196 138.474 137.468 138.531 137.674 138.645C137.882 138.756 138.043 138.886 138.157 139.036C138.273 139.185 138.363 139.316 138.427 139.43H138.491V136.727H139.553V144H138.516V143.151H138.427C138.363 143.267 138.271 143.4 138.15 143.549C138.032 143.698 137.868 143.828 137.66 143.94C137.452 144.051 137.182 144.107 136.85 144.107ZM137.085 143.201C137.39 143.201 137.648 143.121 137.859 142.96C138.072 142.796 138.233 142.57 138.342 142.281C138.453 141.992 138.509 141.656 138.509 141.273C138.509 140.894 138.454 140.562 138.345 140.278C138.236 139.994 138.077 139.773 137.866 139.614C137.655 139.456 137.395 139.376 137.085 139.376C136.765 139.376 136.499 139.459 136.286 139.625C136.073 139.791 135.912 140.017 135.803 140.303C135.696 140.59 135.643 140.913 135.643 141.273C135.643 141.637 135.697 141.965 135.806 142.256C135.915 142.548 136.076 142.778 136.289 142.949C136.505 143.117 136.77 143.201 137.085 143.201ZM144.097 136.727V144H143V136.727H144.097ZM146.272 140.761V144H145.21V138.545H146.229V139.433H146.297C146.422 139.144 146.618 138.912 146.886 138.737C147.156 138.562 147.496 138.474 147.905 138.474C148.277 138.474 148.602 138.553 148.882 138.709C149.161 138.863 149.378 139.092 149.532 139.398C149.685 139.703 149.762 140.081 149.762 140.531V144H148.701V140.658C148.701 140.263 148.598 139.954 148.392 139.732C148.186 139.507 147.903 139.394 147.543 139.394C147.297 139.394 147.078 139.447 146.886 139.554C146.697 139.661 146.546 139.817 146.435 140.023C146.326 140.226 146.272 140.473 146.272 140.761ZM153.382 138.545V139.398H150.3V138.545H153.382ZM151.145 144V137.913C151.145 137.572 151.22 137.29 151.369 137.065C151.518 136.837 151.716 136.668 151.962 136.557C152.208 136.443 152.476 136.386 152.764 136.386C152.977 136.386 153.16 136.404 153.311 136.44C153.463 136.473 153.575 136.504 153.649 136.532L153.4 137.391C153.35 137.377 153.286 137.361 153.208 137.342C153.13 137.32 153.035 137.31 152.924 137.31C152.666 137.31 152.482 137.374 152.37 137.501C152.261 137.629 152.207 137.814 152.207 138.055V144H151.145ZM154.078 144V138.545H155.104V139.412H155.161C155.26 139.118 155.436 138.888 155.687 138.719C155.94 138.549 156.226 138.464 156.546 138.464C156.612 138.464 156.69 138.466 156.78 138.471C156.873 138.476 156.945 138.482 156.997 138.489V139.504C156.954 139.492 156.879 139.479 156.77 139.465C156.661 139.449 156.552 139.44 156.443 139.44C156.192 139.44 155.968 139.494 155.772 139.6C155.578 139.704 155.424 139.85 155.31 140.037C155.196 140.222 155.14 140.432 155.14 140.669V144H154.078ZM159.054 144.121C158.709 144.121 158.396 144.057 158.117 143.929C157.837 143.799 157.616 143.611 157.453 143.364C157.292 143.118 157.211 142.816 157.211 142.459C157.211 142.151 157.27 141.898 157.389 141.699C157.507 141.5 157.667 141.343 157.868 141.227C158.069 141.111 158.294 141.023 158.543 140.964C158.791 140.905 159.045 140.86 159.303 140.829C159.63 140.791 159.895 140.76 160.098 140.737C160.302 140.71 160.45 140.669 160.542 140.612C160.635 140.555 160.681 140.463 160.681 140.335V140.31C160.681 140 160.593 139.76 160.418 139.589C160.245 139.419 159.987 139.334 159.644 139.334C159.286 139.334 159.005 139.413 158.799 139.572C158.595 139.728 158.454 139.902 158.376 140.094L157.378 139.866C157.496 139.535 157.669 139.268 157.897 139.064C158.126 138.858 158.39 138.709 158.688 138.616C158.987 138.522 159.3 138.474 159.63 138.474C159.847 138.474 160.078 138.5 160.322 138.553C160.568 138.602 160.798 138.695 161.011 138.83C161.226 138.964 161.403 139.157 161.54 139.408C161.677 139.657 161.746 139.98 161.746 140.378V144H160.709V143.254H160.666C160.598 143.392 160.495 143.527 160.358 143.659C160.22 143.792 160.044 143.902 159.828 143.989C159.613 144.077 159.355 144.121 159.054 144.121ZM159.285 143.268C159.579 143.268 159.83 143.21 160.038 143.094C160.249 142.978 160.408 142.827 160.517 142.64C160.629 142.451 160.684 142.248 160.684 142.033V141.33C160.646 141.367 160.573 141.403 160.464 141.436C160.358 141.467 160.236 141.494 160.098 141.518C159.961 141.539 159.827 141.559 159.697 141.578C159.567 141.595 159.458 141.609 159.37 141.621C159.164 141.647 158.976 141.691 158.806 141.752C158.638 141.814 158.503 141.902 158.401 142.018C158.301 142.132 158.252 142.284 158.252 142.473C158.252 142.736 158.349 142.935 158.543 143.07C158.737 143.202 158.984 143.268 159.285 143.268ZM166.848 139.877L165.885 140.048C165.845 139.924 165.781 139.807 165.694 139.696C165.608 139.585 165.492 139.494 165.345 139.423C165.199 139.352 165.015 139.316 164.795 139.316C164.494 139.316 164.243 139.384 164.042 139.518C163.841 139.651 163.74 139.823 163.74 140.033C163.74 140.216 163.808 140.362 163.943 140.474C164.078 140.585 164.296 140.676 164.596 140.747L165.463 140.946C165.965 141.062 166.339 141.241 166.585 141.482C166.831 141.724 166.954 142.037 166.954 142.423C166.954 142.75 166.859 143.041 166.67 143.297C166.483 143.55 166.221 143.749 165.885 143.893C165.551 144.038 165.164 144.11 164.724 144.11C164.113 144.11 163.615 143.98 163.229 143.719C162.843 143.457 162.606 143.084 162.519 142.601L163.545 142.445C163.609 142.712 163.74 142.915 163.939 143.052C164.138 143.187 164.397 143.254 164.717 143.254C165.065 143.254 165.343 143.182 165.551 143.038C165.76 142.891 165.864 142.712 165.864 142.501C165.864 142.331 165.8 142.188 165.672 142.072C165.547 141.956 165.354 141.868 165.093 141.809L164.17 141.607C163.661 141.491 163.285 141.306 163.041 141.053C162.799 140.799 162.679 140.478 162.679 140.09C162.679 139.768 162.769 139.487 162.948 139.245C163.128 139.004 163.377 138.815 163.694 138.68C164.011 138.543 164.375 138.474 164.784 138.474C165.374 138.474 165.838 138.602 166.176 138.858C166.515 139.111 166.739 139.451 166.848 139.877ZM170.268 138.545V139.398H167.288V138.545H170.268ZM168.087 137.239H169.149V142.398C169.149 142.604 169.18 142.759 169.241 142.864C169.303 142.965 169.382 143.035 169.479 143.073C169.579 143.109 169.687 143.126 169.803 143.126C169.888 143.126 169.962 143.121 170.026 143.109C170.09 143.097 170.14 143.087 170.175 143.08L170.367 143.957C170.306 143.981 170.218 144.005 170.104 144.028C169.991 144.054 169.849 144.069 169.678 144.071C169.399 144.076 169.138 144.026 168.897 143.922C168.656 143.818 168.46 143.657 168.311 143.439C168.162 143.221 168.087 142.948 168.087 142.619V137.239ZM171.042 144V138.545H172.069V139.412H172.125C172.225 139.118 172.4 138.888 172.651 138.719C172.904 138.549 173.191 138.464 173.51 138.464C173.577 138.464 173.655 138.466 173.745 138.471C173.837 138.476 173.909 138.482 173.961 138.489V139.504C173.919 139.492 173.843 139.479 173.734 139.465C173.625 139.449 173.516 139.44 173.407 139.44C173.156 139.44 172.933 139.494 172.736 139.6C172.542 139.704 172.388 139.85 172.275 140.037C172.161 140.222 172.104 140.432 172.104 140.669V144H171.042ZM177.935 141.738V138.545H179.001V144H177.957V143.055H177.9C177.774 143.347 177.573 143.589 177.296 143.783C177.022 143.975 176.68 144.071 176.27 144.071C175.92 144.071 175.609 143.994 175.34 143.84C175.072 143.684 174.861 143.453 174.707 143.148C174.556 142.842 174.48 142.465 174.48 142.015V138.545H175.542V141.887C175.542 142.259 175.645 142.555 175.851 142.775C176.057 142.995 176.324 143.105 176.653 143.105C176.852 143.105 177.05 143.055 177.247 142.956C177.445 142.857 177.61 142.706 177.74 142.505C177.873 142.304 177.938 142.048 177.935 141.738ZM182.325 144.11C181.797 144.11 181.343 143.991 180.961 143.751C180.583 143.51 180.291 143.177 180.088 142.754C179.884 142.33 179.782 141.844 179.782 141.298C179.782 140.744 179.887 140.255 180.095 139.831C180.303 139.405 180.597 139.072 180.976 138.833C181.354 138.594 181.801 138.474 182.314 138.474C182.729 138.474 183.098 138.551 183.422 138.705C183.747 138.857 184.008 139.07 184.207 139.344C184.408 139.619 184.528 139.94 184.566 140.307H183.532C183.476 140.051 183.345 139.831 183.142 139.646C182.941 139.462 182.671 139.369 182.332 139.369C182.036 139.369 181.777 139.447 181.554 139.604C181.334 139.758 181.163 139.978 181.04 140.264C180.916 140.548 180.855 140.884 180.855 141.273C180.855 141.67 180.915 142.014 181.036 142.303C181.157 142.591 181.327 142.815 181.547 142.974C181.77 143.132 182.031 143.212 182.332 143.212C182.533 143.212 182.716 143.175 182.879 143.102C183.045 143.026 183.183 142.918 183.294 142.778C183.408 142.639 183.487 142.471 183.532 142.274H184.566C184.528 142.627 184.413 142.942 184.221 143.219C184.03 143.496 183.773 143.714 183.451 143.872C183.131 144.031 182.756 144.11 182.325 144.11ZM187.847 138.545V139.398H184.868V138.545H187.847ZM185.667 137.239H186.729V142.398C186.729 142.604 186.76 142.759 186.821 142.864C186.883 142.965 186.962 143.035 187.059 143.073C187.159 143.109 187.266 143.126 187.382 143.126C187.467 143.126 187.542 143.121 187.606 143.109C187.67 143.097 187.72 143.087 187.755 143.08L187.947 143.957C187.885 143.981 187.798 144.005 187.684 144.028C187.57 144.054 187.428 144.069 187.258 144.071C186.979 144.076 186.718 144.026 186.477 143.922C186.235 143.818 186.04 143.657 185.891 143.439C185.742 143.221 185.667 142.948 185.667 142.619V137.239ZM192.077 141.738V138.545H193.143V144H192.099V143.055H192.042C191.916 143.347 191.715 143.589 191.438 143.783C191.163 143.975 190.821 144.071 190.412 144.071C190.061 144.071 189.751 143.994 189.481 143.84C189.214 143.684 189.003 143.453 188.849 143.148C188.698 142.842 188.622 142.465 188.622 142.015V138.545H189.684V141.887C189.684 142.259 189.787 142.555 189.993 142.775C190.199 142.995 190.466 143.105 190.795 143.105C190.994 143.105 191.192 143.055 191.388 142.956C191.587 142.857 191.752 142.706 191.882 142.505C192.015 142.304 192.08 142.048 192.077 141.738ZM194.169 144V138.545H195.196V139.412H195.252C195.352 139.118 195.527 138.888 195.778 138.719C196.031 138.549 196.318 138.464 196.637 138.464C196.704 138.464 196.782 138.466 196.872 138.471C196.964 138.476 197.036 138.482 197.088 138.489V139.504C197.046 139.492 196.97 139.479 196.861 139.465C196.752 139.449 196.643 139.44 196.534 139.44C196.283 139.44 196.06 139.494 195.863 139.6C195.669 139.704 195.515 139.85 195.401 140.037C195.288 140.222 195.231 140.432 195.231 140.669V144H194.169ZM199.763 144.11C199.225 144.11 198.762 143.995 198.374 143.766C197.988 143.534 197.69 143.208 197.479 142.789C197.271 142.368 197.167 141.874 197.167 141.308C197.167 140.75 197.271 140.257 197.479 139.831C197.69 139.405 197.984 139.072 198.36 138.833C198.739 138.594 199.181 138.474 199.688 138.474C199.996 138.474 200.294 138.525 200.583 138.627C200.872 138.729 201.131 138.889 201.361 139.107C201.59 139.324 201.771 139.607 201.904 139.955C202.037 140.301 202.103 140.721 202.103 141.216V141.592H197.767V140.797H201.062C201.062 140.518 201.006 140.27 200.892 140.055C200.778 139.837 200.618 139.665 200.413 139.54C200.209 139.414 199.97 139.352 199.695 139.352C199.397 139.352 199.136 139.425 198.914 139.572C198.694 139.716 198.523 139.906 198.403 140.14C198.284 140.372 198.225 140.624 198.225 140.896V141.518C198.225 141.882 198.289 142.192 198.417 142.448C198.547 142.704 198.728 142.899 198.96 143.034C199.192 143.167 199.463 143.233 199.773 143.233C199.975 143.233 200.158 143.205 200.324 143.148C200.489 143.089 200.633 143.001 200.753 142.885C200.874 142.769 200.967 142.626 201.03 142.455L202.035 142.636C201.955 142.932 201.81 143.192 201.602 143.414C201.396 143.634 201.137 143.806 200.824 143.929C200.514 144.05 200.16 144.11 199.763 144.11Z" fill="#F9FAFB"/>
<rect x="95" y="152" width="153" height="5" rx="1" fill="white" fill-opacity="0.05"/>
<rect x="95" y="161" width="115" height="5" rx="1" fill="white" fill-opacity="0.05"/>
<rect x="329" y="139.5" width="20" height="20" rx="10" fill="white" fill-opacity="0.1"/>
<path d="M342.378 145.5H335.622C334.726 145.5 334 146.226 334 147.122V151.176C334 152.071 334.726 152.797 335.622 152.797H342.378C343.274 152.797 344 152.071 344 151.176V147.122C344 146.226 343.274 145.5 342.378 145.5Z" stroke="#F9FAFB" stroke-width="0.810811" stroke-linecap="round" stroke-linejoin="round"/>
<path d="M336.838 150.976H341.162" stroke="#F9FAFB" stroke-width="0.810811" stroke-linecap="round" stroke-linejoin="round"/>
<path d="M336.567 148C336.866 148 337.108 147.758 337.108 147.459C337.108 147.161 336.866 146.919 336.567 146.919C336.269 146.919 336.027 147.161 336.027 147.459C336.027 147.758 336.269 148 336.567 148Z" fill="#F9FAFB"/>
<path d="M338.189 148C338.488 148 338.73 147.758 338.73 147.459C338.73 147.161 338.488 146.919 338.189 146.919C337.89 146.919 337.648 147.161 337.648 147.459C337.648 147.758 337.89 148 338.189 148Z" fill="#F9FAFB"/>
<path d="M339.811 148C340.11 148 340.352 147.758 340.352 147.459C340.352 147.161 340.11 146.919 339.811 146.919C339.513 146.919 339.271 147.161 339.271 147.459C339.271 147.758 339.513 148 339.811 148Z" fill="#F9FAFB"/>
<path d="M341.433 148C341.731 148 341.973 147.758 341.973 147.459C341.973 147.161 341.731 146.919 341.433 146.919C341.134 146.919 340.892 147.161 340.892 147.459C340.892 147.758 341.134 148 341.433 148Z" fill="#F9FAFB"/>
<path d="M336.567 149.622C336.866 149.622 337.108 149.38 337.108 149.081C337.108 148.783 336.866 148.541 336.567 148.541C336.269 148.541 336.027 148.783 336.027 149.081C336.027 149.38 336.269 149.622 336.567 149.622Z" fill="#F9FAFB"/>
<path d="M338.189 149.622C338.488 149.622 338.73 149.38 338.73 149.081C338.73 148.783 338.488 148.541 338.189 148.541C337.89 148.541 337.648 148.783 337.648 149.081C337.648 149.38 337.89 149.622 338.189 149.622Z" fill="#F9FAFB"/>
<path d="M339.811 149.622C340.11 149.622 340.352 149.38 340.352 149.081C340.352 148.783 340.11 148.541 339.811 148.541C339.513 148.541 339.271 148.783 339.271 149.081C339.271 149.38 339.513 149.622 339.811 149.622Z" fill="#F9FAFB"/>
<path d="M341.433 149.622C341.731 149.622 341.973 149.38 341.973 149.081C341.973 148.783 341.731 148.541 341.433 148.541C341.134 148.541 340.892 148.783 340.892 149.081C340.892 149.38 341.134 149.622 341.433 149.622Z" fill="#F9FAFB"/>
<path d="M353 149.5C353 143.977 357.477 139.5 363 139.5C368.523 139.5 373 143.977 373 149.5C373 155.023 368.523 159.5 363 159.5C357.477 159.5 353 155.023 353 149.5Z" fill="white" fill-opacity="0.1"/>
<path d="M363 145.333C363.125 145.333 363.247 145.379 363.34 145.463C363.434 145.546 363.494 145.661 363.509 145.786L363.513 145.846V154.055C363.513 154.186 363.462 154.311 363.373 154.406C363.283 154.502 363.16 154.559 363.03 154.566C362.899 154.574 362.771 154.532 362.67 154.448C362.57 154.364 362.506 154.245 362.49 154.115L362.487 154.055V145.846C362.487 145.71 362.541 145.58 362.637 145.484C362.733 145.387 362.864 145.333 363 145.333ZM360.948 146.872C361.084 146.872 361.214 146.926 361.31 147.023C361.406 147.119 361.461 147.249 361.461 147.385V152.516C361.461 152.652 361.406 152.782 361.31 152.879C361.214 152.975 361.084 153.029 360.948 153.029C360.811 153.029 360.681 152.975 360.585 152.879C360.489 152.782 360.434 152.652 360.434 152.516V147.385C360.434 147.249 360.489 147.119 360.585 147.023C360.681 146.926 360.811 146.872 360.948 146.872ZM365.052 146.872C365.188 146.872 365.318 146.926 365.415 147.023C365.511 147.119 365.565 147.249 365.565 147.385V152.516C365.565 152.652 365.511 152.782 365.415 152.879C365.318 152.975 365.188 153.029 365.052 153.029C364.916 153.029 364.785 152.975 364.689 152.879C364.593 152.782 364.539 152.652 364.539 152.516V147.385C364.539 147.249 364.593 147.119 364.689 147.023C364.785 146.926 364.916 146.872 365.052 146.872ZM358.895 148.411C359.031 148.411 359.162 148.466 359.258 148.562C359.354 148.658 359.408 148.788 359.408 148.925V150.977C359.408 151.113 359.354 151.243 359.258 151.339C359.162 151.436 359.031 151.49 358.895 151.49C358.759 151.49 358.629 151.436 358.533 151.339C358.436 151.243 358.382 151.113 358.382 150.977V148.925C358.382 148.788 358.436 148.658 358.533 148.562C358.629 148.466 358.759 148.411 358.895 148.411ZM367.104 148.411C367.23 148.411 367.351 148.458 367.445 148.541C367.539 148.625 367.599 148.74 367.613 148.864L367.617 148.925V150.977C367.617 151.107 367.567 151.233 367.477 151.328C367.387 151.423 367.265 151.481 367.134 151.488C367.003 151.496 366.875 151.453 366.775 151.369C366.674 151.286 366.61 151.167 366.594 151.037L366.591 150.977V148.925C366.591 148.788 366.645 148.658 366.741 148.562C366.837 148.466 366.968 148.411 367.104 148.411Z" fill="#F9FAFB"/>
<rect x="47" y="184" width="186" height="13" rx="1" fill="white" fill-opacity="0.05"/>
<rect x="237" y="184" width="136" height="13" rx="1" fill="white" fill-opacity="0.05"/>
<rect x="47" y="202" width="278" height="13" rx="1" fill="white" fill-opacity="0.05"/>
<rect x="329" y="202" width="44" height="13" rx="1" fill="white" fill-opacity="0.05"/>
<rect x="47" y="220" width="22" height="13" rx="1" fill="white" fill-opacity="0.05"/>
<rect x="73" y="220" width="300" height="13" rx="1" fill="white" fill-opacity="0.05"/>
<rect x="47" y="238" width="222" height="13" rx="1" fill="white" fill-opacity="0.05"/>
<rect x="273" y="238" width="100" height="13" rx="1" fill="white" fill-opacity="0.05"/>
</g>
<rect x="30.5" y="117.5" width="354" height="147" rx="15.5" stroke="url(#paint2_linear_542_9)"/>
<line x1="193.5" y1="98" x2="193.5" y2="117" stroke="url(#paint3_linear_542_9)"/>
<rect y="-19" width="414" height="289" fill="url(#paint4_linear_542_9)"/>
<defs>
<filter id="filter0_f_542_9" x="60" y="87" width="295" height="35" filterUnits="userSpaceOnUse" color-interpolation-filters="sRGB">
<feFlood flood-opacity="0" result="BackgroundImageFix"/>
<feBlend mode="normal" in="SourceGraphic" in2="BackgroundImageFix" result="shape"/>
<feGaussianBlur stdDeviation="5" result="effect1_foregroundBlur_542_9"/>
</filter>
<filter id="filter1_f_542_9" x="60" y="93" width="295" height="35" filterUnits="userSpaceOnUse" color-interpolation-filters="sRGB">
<feFlood flood-opacity="0" result="BackgroundImageFix"/>
<feBlend mode="normal" in="SourceGraphic" in2="BackgroundImageFix" result="shape"/>
<feGaussianBlur stdDeviation="5" result="effect1_foregroundBlur_542_9"/>
</filter>
<linearGradient id="paint0_linear_542_9" x1="65.5" y1="48" x2="65.5" y2="85" gradientUnits="userSpaceOnUse">
<stop stop-color="#FF8D28"/>
<stop offset="1" stop-color="#FFC693"/>
</linearGradient>
<linearGradient id="paint1_linear_542_9" x1="65.5" y1="131" x2="65.5" y2="168" gradientUnits="userSpaceOnUse">
<stop stop-color="#0044FF"/>
<stop offset="1" stop-color="#0088FF"/>
</linearGradient>
<linearGradient id="paint2_linear_542_9" x1="207.5" y1="265" x2="207.5" y2="117" gradientUnits="userSpaceOnUse">
<stop stop-color="#222B59" stop-opacity="0.63"/>
<stop offset="1" stop-color="#0044FF"/>
</linearGradient>
<linearGradient id="paint3_linear_542_9" x1="192.5" y1="98" x2="192.5" y2="117" gradientUnits="userSpaceOnUse">
<stop stop-color="#FF8D28"/>
<stop offset="1" stop-color="#0044FF"/>
</linearGradient>
<linearGradient id="paint4_linear_542_9" x1="207" y1="185.5" x2="207" y2="270" gradientUnits="userSpaceOnUse">
<stop stop-color="#0D192B" stop-opacity="0"/>
<stop offset="1" stop-color="#0D192B"/>
</linearGradient>
<clipPath id="clip0_542_9">
<rect x="30" y="34" width="355" height="64" rx="16" fill="white"/>
</clipPath>
<clipPath id="clip1_542_9">
<rect width="12.8077" height="12.8077" fill="white" transform="translate(59.0962 60.0962)"/>
</clipPath>
<clipPath id="clip2_542_9">
<rect x="30" y="117" width="355" height="148" rx="16" fill="white"/>
</clipPath>
</defs>
</svg>
