<svg width="14" height="14" viewBox="0 0 14 14" fill="none" xmlns="http://www.w3.org/2000/svg">
<g clip-path="url(#clip0_75_137)">
<path fill-rule="evenodd" clip-rule="evenodd" d="M7.933 0.766998C7.933 0.568086 7.85398 0.37732 7.71333 0.236668C7.57268 0.0960159 7.38191 0.0169983 7.183 0.0169983C6.98409 0.0169983 6.79332 0.0960159 6.65267 0.236668C6.51202 0.37732 6.433 0.568086 6.433 0.766998V1.521C6.433 1.71991 6.51202 1.91068 6.65267 2.05133C6.79332 2.19198 6.98409 2.271 7.183 2.271C7.38191 2.271 7.57268 2.19198 7.71333 2.05133C7.85398 1.91068 7.933 1.71991 7.933 1.521V0.766998ZM6.595 2.928C6.76727 2.82875 6.97191 2.80196 7.16392 2.85353C7.35594 2.90509 7.51962 3.03079 7.619 3.203L11.477 9.884C11.5749 10.0562 11.6007 10.2601 11.5488 10.4512C11.4969 10.6423 11.3715 10.8052 11.2 10.9042C11.0285 11.0032 10.8248 11.0304 10.6333 10.9798C10.4418 10.9292 10.2782 10.8049 10.178 10.634L10.123 10.538L7.031 11.256C7.16921 11.7641 7.11805 12.3051 6.88706 12.7783C6.65606 13.2514 6.26097 13.6245 5.77535 13.8281C5.28973 14.0316 4.74668 14.0518 4.24733 13.8847C3.74798 13.7176 3.32637 13.3748 3.061 12.92L3.059 12.917L2.683 12.266L1.229 12.603C1.12461 12.6272 1.01519 12.6173 0.91689 12.5746C0.818586 12.5319 0.736593 12.4588 0.682998 12.366L0.0739978 11.311C0.0205432 11.2182 -0.00170085 11.1107 0.0105409 11.0043C0.0227827 10.8979 0.0688633 10.7982 0.141998 10.72L6.377 4.05L6.32 3.953C6.2707 3.86765 6.2387 3.77343 6.22584 3.67571C6.21298 3.57799 6.21951 3.47869 6.24505 3.3835C6.27059 3.2883 6.31464 3.19908 6.37469 3.12092C6.43473 3.04276 6.5096 2.9772 6.595 2.928ZM4.21 11.911L5.567 11.596C5.62614 11.7538 5.62376 11.928 5.56033 12.0841C5.4969 12.2402 5.37707 12.3667 5.22464 12.4385C5.07222 12.5103 4.89835 12.5222 4.7376 12.4717C4.57686 12.4212 4.44099 12.3121 4.357 12.166L4.21 11.911ZM13.99 6.823C13.99 7.02191 13.911 7.21268 13.7703 7.35333C13.6297 7.49398 13.4389 7.573 13.24 7.573H12.486C12.2871 7.573 12.0963 7.49398 11.9557 7.35333C11.815 7.21268 11.736 7.02191 11.736 6.823C11.736 6.62409 11.815 6.43332 11.9557 6.29267C12.0963 6.15202 12.2871 6.073 12.486 6.073H13.239C13.4379 6.073 13.6287 6.15202 13.7693 6.29267C13.91 6.43332 13.99 6.62409 13.99 6.823ZM1.882 7.573C2.08091 7.573 2.27168 7.49398 2.41233 7.35333C2.55298 7.21268 2.632 7.02191 2.632 6.823C2.632 6.62409 2.55298 6.43332 2.41233 6.29267C2.27168 6.15202 2.08091 6.073 1.882 6.073H1.128C0.929085 6.073 0.73832 6.15202 0.597668 6.29267C0.457015 6.43332 0.377998 6.62409 0.377998 6.823C0.377998 7.02191 0.457015 7.21268 0.597668 7.35333C0.73832 7.49398 0.929085 7.573 1.128 7.573H1.882ZM4.064 3.705C3.92337 3.84545 3.73275 3.92434 3.534 3.92434C3.33525 3.92434 3.14462 3.84545 3.004 3.705L2.37 3.071C2.29631 3.00234 2.23721 2.91954 2.19622 2.82754C2.15522 2.73554 2.13318 2.63622 2.13141 2.53552C2.12963 2.43482 2.14815 2.33479 2.18588 2.2414C2.2236 2.14801 2.27974 2.06318 2.35096 1.99196C2.42218 1.92074 2.50701 1.8646 2.6004 1.82688C2.69379 1.78915 2.79382 1.77063 2.89452 1.77241C2.99522 1.77418 3.09454 1.79623 3.18654 1.83722C3.27854 1.87821 3.36134 1.93731 3.43 2.011L4.065 2.644C4.13469 2.71365 4.18998 2.79635 4.2277 2.88737C4.26542 2.9784 4.28484 3.07597 4.28484 3.1745C4.28484 3.27303 4.26542 3.3706 4.2277 3.46162C4.18998 3.55265 4.13369 3.63535 4.064 3.705ZM11.996 3.071C12.1285 2.92882 12.2006 2.74078 12.1972 2.54648C12.1937 2.35217 12.115 2.16679 11.9776 2.02938C11.8402 1.89196 11.6548 1.81325 11.4605 1.80982C11.2662 1.8064 11.0782 1.87852 10.936 2.011L10.294 2.651C10.1533 2.7917 10.0743 2.98252 10.0743 3.1815C10.0743 3.28002 10.0937 3.37758 10.1314 3.4686C10.1691 3.55963 10.2243 3.64233 10.294 3.712C10.3637 3.78166 10.4464 3.83693 10.5374 3.87463C10.6284 3.91233 10.726 3.93174 10.8245 3.93174C11.0235 3.93174 11.2143 3.8527 11.355 3.712L11.996 3.071Z" fill="#fff"/>
</g>
<defs>
<clipPath id="clip0_75_137">
<rect width="14" height="14" fill="white"/>
</clipPath>
</defs>
</svg>
